<?xml version="1.0" encoding="utf-8"?>
<!-- Generator: Adobe Illustrator 27.8.1, SVG Export Plug-In . SVG Version: 6.00 Build 0)  -->
<svg version="1.1" id="Layer_1" xmlns="http://www.w3.org/2000/svg" xmlns:xlink="http://www.w3.org/1999/xlink" x="0px" y="0px"
	 viewBox="0 0 723 257" style="enable-background:new 0 0 723 257;" xml:space="preserve">
<style type="text/css">
	.st0{fill:#092E20;}
</style>
<g>
	<g>
		<path class="st0" d="M85.2,0h39.5v183c-20.3,3.9-35.2,5.4-51.3,5.4C25.2,188.4,0,166.6,0,124.7c0-40.3,26.7-66.5,68-66.5
			c6.4,0,11.3,0.5,17.2,2.1C85.2,60.3,85.2,0,85.2,0z M85.2,92.1c-4.6-1.5-8.5-2.1-13.4-2.1c-20,0-31.6,12.3-31.6,33.9
			c0,21.1,11,32.6,31.3,32.6c4.4,0,8-0.3,13.6-1V92.1z"/>
		<path class="st0" d="M187.7,61.1v91.7c0,31.6-2.3,46.7-9.2,59.8c-6.4,12.6-14.9,20.5-32.4,29.3l-36.7-17.5
			c17.5-8.2,25.9-15.4,31.3-26.4c5.6-11.3,7.4-24.4,7.4-58.8V61.1H187.7z M148.1,0.2h39.5v40.6h-39.5V0.2z"/>
		<path class="st0" d="M211.6,70c17.5-8.2,34.1-11.8,52.4-11.8c20.3,0,33.6,5.4,39.5,15.9c3.3,5.9,4.4,13.6,4.4,30v80.4
			c-17.7,2.6-40.1,4.4-56.5,4.4c-33.1,0-48-11.6-48-37.2c0-27.7,19.8-40.6,68.3-44.7v-8.7c0-7.2-3.6-9.8-13.6-9.8
			c-14.6,0-31.1,4.1-46.5,12.1L211.6,70L211.6,70z M273.4,133c-26.2,2.6-34.7,6.7-34.7,16.9c0,7.7,4.9,11.3,15.7,11.3
			c5.9,0,11.3-0.5,19-1.8L273.4,133L273.4,133z"/>
		<path class="st0" d="M327.1,67.2c23.4-6.2,42.6-9,62.1-9c20.3,0,34.9,4.6,43.7,13.6c8.2,8.5,10.8,17.7,10.8,37.5v77.5h-39.5v-76
			c0-15.1-5.1-20.8-19.3-20.8c-5.4,0-10.3,0.5-18.2,2.8v94h-39.5V67.2z"/>
		<path class="st0" d="M459,208.4c13.9,7.2,27.7,10.5,42.4,10.5c25.9,0,37-10.5,37-35.7c0-0.3,0-0.5,0-0.8
			c-7.7,3.8-15.4,5.4-25.7,5.4c-34.7,0-56.7-22.9-56.7-59.1c0-44.9,32.6-70.3,90.4-70.3c16.9,0,32.6,1.8,51.6,5.6l-13.5,28.5
			c-10.5-2.1-0.8-0.3-8.8-1v4.1l0.5,16.7l0.3,21.6c0.3,5.4,0.3,10.8,0.5,16.2c0,4.9,0,7.2,0,10.8c0,33.9-2.8,49.8-11.3,62.9
			c-12.3,19.3-33.6,28.8-63.9,28.8c-15.4,0-28.8-2.3-42.6-7.7L459,208.4L459,208.4z M537.6,90.3c-0.5,0-1,0-1.3,0h-2.8
			c-7.7-0.3-16.7,1.8-22.9,5.6c-9.5,5.4-14.4,15.2-14.4,29c0,19.8,9.8,31.1,27.2,31.1c5.4,0,9.8-1,14.9-2.6v-2.8v-10.8
			c0-4.6-0.3-9.8-0.3-15.1l-0.3-18.2l-0.3-13.1L537.6,90.3L537.6,90.3z"/>
		<path class="st0" d="M659.3,57.7c39.5,0,63.7,24.9,63.7,65.2c0,41.3-25.2,67.3-65.2,67.3c-39.5,0-63.9-24.9-63.9-65
			C593.9,83.7,619,57.7,659.3,57.7z M658.6,158.4c15.2,0,24.1-12.6,24.1-34.4c0-21.6-8.7-34.4-23.9-34.4
			c-15.7,0-24.7,12.6-24.7,34.4C634.2,145.8,643.1,158.4,658.6,158.4z"/>
	</g>
</g>
</svg>
