<?xml version="1.0" encoding="UTF-8"?><svg id="svg3476" xmlns="http://www.w3.org/2000/svg" viewBox="0 0 618.24 333"><defs><style>.cls-1{fill:#f16529;}.cls-1,.cls-2,.cls-3,.cls-4,.cls-5,.cls-6{stroke-width:0px;}.cls-2{fill:#e44d26;}.cls-3{fill:#2965f1;}.cls-4{fill:#fff;}.cls-5{fill:#264de4;}.cls-6{fill:#ebebeb;}</style></defs><g id="layer1"><g id="g3013"><polygon id="polygon2989" class="cls-5" points="618.24 0 591.8 296.16 472.97 329.1 354.46 296.21 328.05 0 618.24 0"/><polygon id="polygon2991" class="cls-3" points="569.17 277.3 591.76 24.22 473.15 24.22 473.15 303.92 569.17 277.3"/><polygon id="polygon2993" class="cls-6" points="388.6 134.08 391.85 170.41 473.15 170.41 473.15 134.08 388.6 134.08"/><polygon id="polygon2995" class="cls-6" points="473.15 60.55 473.02 60.55 382.05 60.55 385.36 96.88 473.15 96.88 473.15 60.55"/><polygon id="polygon2997" class="cls-6" points="473.15 266.22 473.15 228.43 472.99 228.47 432.53 217.54 429.94 188.57 410.28 188.57 393.47 188.57 398.56 245.61 472.98 266.27 473.15 266.22"/><polygon id="polygon3005" class="cls-4" points="517.76 170.41 513.54 217.52 473.02 228.46 473.02 266.25 547.5 245.61 548.04 239.47 556.58 143.83 557.47 134.08 564.02 60.55 473.02 60.55 473.02 96.88 524.21 96.88 520.91 134.08 473.02 134.08 473.02 170.41 517.76 170.41"/></g></g><path class="cls-2" d="m26.71,299.81L0,0h293.66l-26.71,299.65-120.36,33.35"/><path class="cls-1" d="m146.83,307.5V24.61h120.04l-22.91,255.78"/><path class="cls-6" d="m54.56,61.27h92.28v36.75h-51.97l3.4,37.64h48.57v36.67h-82.24m1.62,18.46h36.91l2.59,29.38,41.12,11.01v38.37l-75.44-21.05"/><path class="cls-4" d="m238.78,61.27h-92.11v36.75h88.71m-3.32,37.64h-85.39v36.75h45.33l-4.29,47.76-41.04,11.01v38.21l75.28-20.88"/></svg>