<?xml version="1.0" encoding="utf-8"?>
<!-- Generator: Adobe Illustrator 27.8.1, SVG Export Plug-In . SVG Version: 6.00 Build 0)  -->
<svg version="1.1" id="Layer_1" xmlns="http://www.w3.org/2000/svg" xmlns:xlink="http://www.w3.org/1999/xlink" x="0px" y="0px"
	 viewBox="0 0 175.9 93.2" style="enable-background:new 0 0 175.9 93.2;" xml:space="preserve">
<style type="text/css">
	.st0{fill-rule:evenodd;clip-rule:evenodd;fill:#00678C;}
	.st1{fill-rule:evenodd;clip-rule:evenodd;fill:#CE8B2C;}
</style>
<g transform="matrix(.037376 0 0 .037376 1.069994 -1.319339)">
	<path class="st0" d="M16.3,2270.2h153.6v-608.6l239.9,530.6c27.2,63.8,66.2,87.4,141.8,87.4s112.3-23.7,140.4-87.4l238.7-530.6
		v608.6h154.8v-608.6c0-59.1-23.7-87.5-73.3-102.9c-117-35.4-195-4.7-230.4,74.4l-235.2,524.7l-226.9-524.7
		c-34.3-79.1-113.5-109.9-231.6-74.4c-48.5,15.4-72.1,43.8-72.1,102.9l0,608.6H16.3z M1213.5,1775h154.8v334.5
		c-1.2,18.9,5.9,61.5,90.1,62.6c43.7,1.2,333.3,0,335.6,0v-399.4h154.8v547.2c0,134.7-166.9,164.2-244.6,165.4h-486.9v-102.8h488.1
		c99.3-10.6,87.5-60.3,87.5-76.8v-40.2h-327.4c-152.5-1.2-250.6-68.6-251.7-145.4v-345.1L1213.5,1775z M4534.5,1387.3
		c-94.5-2.4-167.8,7.1-229.3,33.1c-17.7,7.2-46.1,7.2-48.4,29.6c9.5,9.4,10.6,24.8,18.9,37.8c14.2,23.7,39,55.5,61.5,72
		c24.8,18.9,49.7,37.8,75.6,54.4c46.1,28.3,98.1,44.9,143,73.3c26,16.6,52,37.8,78,55.6c13.2,9.5,21.3,24.8,37.8,30.7v-3.6
		c-8.3-10.6-10.6-26-18.9-37.8c-11.8-11.8-23.7-22.5-35.5-34.2c-34.2-46.1-76.8-86.3-122.9-119.4c-37.8-26-120.5-61.5-135.9-105.2
		l-2.3-2.4c26-2.4,56.7-11.8,81.5-18.9c40.2-10.6,76.8-8.3,118.1-18.9c18.9-4.8,37.8-10.6,56.8-16.6v-10.6
		c-21.3-21.3-36.6-49.6-59.1-69.7c-60.3-52-126.5-102.8-195-145.4c-36.6-23.6-83.9-39-122.9-59.1c-14.2-7.1-37.8-10.6-46.1-22.5
		c-21.3-26-33.1-60.3-48.5-91c-34.2-65-67.4-137.1-96.9-205.6c-21.3-46.1-34.3-92.2-60.3-134.7c-121.7-200.9-254.1-322.6-457.4-442
		c-43.7-24.8-95.7-35.5-151-48.5l-88.6-4.8c-18.9-8.3-37.8-30.7-54.4-41.4c-67.4-42.5-241.1-134.7-290.8-13
		c-31.9,76.8,47.3,152.4,74.2,191.5c20.1,27.2,46.1,57.9,60.3,88.6c7.9,20.1,10.6,41.4,18.9,62.6c18.9,52,36.6,109.9,61.5,158.4
		c13.2,24.8,27.2,50.9,43.7,73.3c9.5,13,26,18.9,29.5,40.2c-16.6,23.7-17.7,59.1-27.2,88.7c-42.6,133.6-26,299,34.2,397.1
		c18.9,29.5,63.6,94.6,124.1,69.7c53.2-21.3,41.3-88.6,56.7-147.7c3.6-14.2,1.2-23.6,8.3-33.1v2.4l48.5,98.1
		c36.6,57.9,100.5,118.2,153.6,158.4c28.3,21.3,50.8,57.9,86.2,70.9v-3.6h-2.3c-7.1-10.6-17.7-15.4-27.2-23.6
		c-21.3-21.3-44.9-47.3-61.5-70.9c-49.6-66.2-93.3-139.5-132.3-215.1c-18.9-36.6-35.5-76.8-50.8-113.4c-7.2-14.2-7.2-35.5-18.9-42.5
		c-17.7,26-43.7,48.5-56.8,80.4c-22.5,50.8-24.8,113.4-33.1,178.5c-4.8,1.2-2.6,0-4.8,2.4c-37.8-9.4-50.8-48.5-65-81.5
		c-35.4-83.9-41.4-218.6-10.6-315.6c8.3-24.8,43.8-102.8,29.6-126.5c-7.2-22.5-30.7-35.4-43.8-53.2c-15.4-22.5-31.9-50.8-42.5-75.6
		c-28.3-66.2-42.5-139.5-73.3-205.7c-14.2-30.7-39-62.6-59.1-91c-22.5-31.9-47.2-54.4-65-92.2c-5.9-13-14.2-34.3-4.7-48.5
		c2.3-9.5,7.1-13,16.5-15.4c15.4-13,59.1,3.5,74.5,10.6c43.7,17.7,80.3,34.3,117,59.1c16.6,11.8,34.3,34.3,55.6,40.2h24.8
		c37.8,8.3,80.3,2.4,115.8,13c62.6,20.1,119.4,49.6,170.2,81.6c154.8,98.1,282.5,237.5,368.7,404.2c14.2,27.2,20.1,52,33.1,80.4
		c24.8,57.9,55.6,117,80.3,173.8c24.8,55.5,48.5,112.3,83.9,158.4c17.7,24.8,88.6,37.8,120.5,50.8c23.7,10.6,60.3,20.1,81.6,33.1
		c40.2,24.8,80.3,53.2,118.1,80.4c18.9,14.1,78,43.7,81.5,67.3L4534.5,1387.3z M3329.3,360.3c-16.3-0.1-32.6,1.8-48.4,5.9v2.4h2.3
		c9.5,18.9,26,31.9,37.8,48.5l27.2,56.7l2.3-2.4c16.6-11.8,24.8-30.7,24.8-59.1c-7.1-8.3-8.3-16.6-14.2-24.8
		C3354.1,375.7,3338.7,369.8,3329.3,360.3L3329.3,360.3z"/>
	<path class="st1" d="M2066.8,2270.2h444.4c52,0,101.7-10.6,141.8-29.5c67.4-30.7,99.3-72,99.3-126.4v-113.4
		c0-43.7-36.6-85.1-109.9-113.4c-37.8-14.2-85.1-22.5-131.2-22.5h-186.7c-62.6,0-92.2-18.9-100.5-60.3c-1.2-4.7-1.2-9.5-1.2-14.2
		v-69.7c0-3.6,0-8.3,1.2-13c8.3-31.9,24.8-40.2,79.5-46.1h455v-102.9h-432.6c-62.6,0-95.7,3.6-125.3,13
		c-91,28.3-131.2,73.3-131.2,152.4v89.9c0,69.7,78,128.8,210.4,143c14.2,1.2,29.5,1.2,44.9,1.2h159.6c5.9,0,11.8,0,16.5,1.2
		c48.5,4.7,69.7,13,83.9,30.7c9.5,9.5,11.8,17.7,11.8,28.4v89.8c0,10.6-7.1,24.8-21.3,36.6c-14.2,11.8-36.7,20.1-66.2,21.3
		c-5.9,0-9.4,1.2-15.4,1.2h-426.8V2270.2z M3714.3,2091.7c0,105.2,79.5,164.2,237.6,176.1c15.4,1.2,29.5,2.3,44.9,2.3h401.8v-102.8
		h-405.4c-89.9,0-124.1-22.5-124.1-76.8v-531.8H3714v533L3714.3,2091.7z M2850.4,2096.4v-366.3c0-93.4,66.2-150.1,195-167.8
		c14.2-1.2,28.3-2.4,41.3-2.4h293.1c15.4,0,28.4,1.2,43.8,2.4c128.8,17.7,193.8,74.4,193.8,167.8v366.3c0,75.6-27.2,115.8-91,143
		l151.2,137.1h-178.4l-122.9-111.1l-124.1,7.1h-165.4c-30.3-0.2-60.5-4.1-89.8-11.8C2898.8,2233.5,2850.4,2181.6,2850.4,2096.4z
		 M3017,2088.2c0,4.7,2.6,9.4,3.6,15.4c8.3,42.5,48.4,66.2,109.9,66.2h139.5l-127.6-115.8h178.4l112.3,101.7
		c21.3-11.8,34.3-28.4,39-49.7c1.2-4.7,1.2-10.6,1.2-15.4v-351c0-4.7,0-9.4-1.2-14.2c-8.3-40.2-48.4-62.6-108.7-62.6h-232.8
		c-68.6,0-113.4,29.5-113.4,76.8L3017,2088.2z"/>
</g>
</svg>
